<svg id="Lager_1" data-name="Lager 1" xmlns="http://www.w3.org/2000/svg" viewBox="0 0 12 12"><defs><style>.cls-1{stroke:#000;stroke-miterlimit:10;}</style></defs><title>RSSFeed_icon</title><circle cx="1.99" cy="9.76" r="1.09"/><path d="M2,9.17a.59.59,0,1,1-.59.59A.59.59,0,0,1,2,9.17m0-1A1.59,1.59,0,1,0,3.58,9.76,1.59,1.59,0,0,0,2,8.17Z"/><path class="cls-1" d="M9.51,8.47c0,1.55-.17-1.27-2-3.05S2.25,2.79,3.83,2.79A5.68,5.68,0,0,1,9.51,8.47Z"/><path class="cls-1" d="M10.89,4.63c0,.9-.35-.65-1.4-1.67s-2.9-1.68-2-1.68A3.35,3.35,0,0,1,10.89,4.63Z"/><path class="cls-1" d="M7.27,10.71c0,1.55-.17-1.27-2-3.05S0,5,1.59,5A5.68,5.68,0,0,1,7.27,10.71Z"/></svg>